<?xml version="1.0" encoding="UTF-8"?>
<svg id="_图层_1" data-name="图层 1" xmlns="http://www.w3.org/2000/svg" viewBox="0 0 595.28 841.89">
  <defs>
    <style>
      .cls-1 {
        fill: #004e54;
      }

      .cls-2 {
        fill: #e68538;
      }

      .cls-3 {
        fill: none;
      }

      .cls-3, .cls-4 {
        stroke: #002727;
        stroke-miterlimit: 10;
      }

      .cls-4 {
        fill: #00464b;
        stroke-width: .75px;
      }

      .cls-5 {
        fill: #231815;
      }
    </style>
  </defs>
  <path class="cls-5" d="m62.78,403.6l14.63,22.89,14.56-22.96c.91-1.4,2.38-2.03,3.71-2.03,2.03,0,3.92,1.4,3.92,3.92v37.03c0,2.45-2.17,3.64-4.13,3.64s-3.99-1.19-3.99-3.64v-23.59l-10.43,16.31c-.77,1.4-2.24,2.03-3.64,2.03s-3.01-.84-3.78-2.24l-10.29-16.03v23.52c0,2.45-2.1,3.64-4.06,3.64s-4.06-1.19-4.06-3.64v-36.96c0-2.45,1.96-3.99,3.99-3.99,1.33,0,2.73.77,3.57,2.1Z"/>
  <path class="cls-4" d="m113.01,408.5c-2.1,0-4.06-1.12-4.06-3.5v-.91c0-2.38,1.96-3.5,4.06-3.5,1.96,0,4.06,1.12,4.06,3.5v.91c0,2.38-2.1,3.5-4.06,3.5Z"/>
  <path class="cls-5" d="m140.83,416.62c-6.16,0-10.22,4.62-10.22,11.76s4.2,11.48,10.5,11.48c2.8,0,5.88-.91,8.12-3.15,4.06-4.13,8.89.63,5.39,4.48-3.64,3.99-8.54,5.6-13.58,5.6-11.13,0-18.48-7.35-18.48-18.34s7.28-18.69,18.27-18.69c5.11,0,9.52,1.33,13.3,5.67,3.43,3.92-2.03,8.4-5.25,4.62-2.17-2.52-5.25-3.43-8.05-3.43Z"/>
  <path class="cls-5" d="m181.92,413.89c0,2.24-1.61,3.64-4.13,3.64-5.88,0-7.98,4.48-7.98,11.69v13.3c0,2.1-1.75,3.57-3.85,3.57-2.45,0-4.06-1.47-4.06-3.57v-28.49c0-2.24,2.1-3.57,4.06-3.57s3.85,1.26,3.85,3.57v.42c2.03-2.73,4.76-3.99,7.98-3.99,2.52,0,4.13,1.05,4.13,3.43Z"/>
  <path class="cls-5" d="m220.42,428.45c-.14,10.99-7.63,18.34-18.62,18.34s-18.48-7.35-18.62-18.34c0-11.13,7.49-18.69,18.62-18.69s18.62,7.56,18.62,18.69Zm-8.19,0c0-6.86-4.13-11.69-10.43-11.69s-10.43,4.83-10.43,11.69,4.13,11.34,10.43,11.34,10.43-4.62,10.43-11.34Z"/>
  <path class="cls-2" d="m265.22,407.73c3.78,4.27-2.17,8.68-5.81,4.76-3.5-3.78-7.35-4.55-11.69-4.55-8.89,0-14.77,6.16-14.77,15.33,0,9.87,6.02,16.38,15.12,16.38,4.41,0,9.17-2.52,11.83-5.74,3.78-4.55,9.8-.56,6.37,4.2-3.85,5.39-11.48,8.68-18.34,8.68-13.79,0-23.03-9.38-23.03-23.52s9.94-22.47,22.89-22.47c6.86,0,12.88,1.82,17.43,6.93Z"/>
  <path class="cls-5" d="m296.44,402.76l19.81,38.85c1.82,3.08-.98,5.18-3.64,5.18-1.33,0-2.87-.7-3.57-2.03l-4.9-9.73h-22.54l-4.9,9.73c-.7,1.47-2.17,2.03-3.5,2.03-2.45,0-5.18-2.24-3.92-4.97l19.95-39.06c.7-1.54,1.82-1.96,3.64-1.96,1.47,0,2.87.56,3.57,1.96Zm-11.41,25.48h15.68l-7.84-15.61-7.84,15.61Z"/>
  <path class="cls-5" d="m353.28,405.14c0,1.75-1.47,3.57-4.13,3.57h-13.02l.07,33.67c0,2.52-2.31,3.71-4.13,3.71-1.96,0-4.06-1.19-4.06-3.71v-33.67h-12.95c-2.73,0-3.92-1.82-3.92-3.57s1.19-3.64,3.92-3.64h34.09c2.66,0,4.13,1.82,4.13,3.64Z"/>
  <path class="cls-5" d="m234.19,396.06s-5.34,8.2-1.1,14.04l4.73-3.41s-1.32-10.9-3.63-10.62Z"/>
  <path class="cls-5" d="m256.71,396.05s3.96,5.18,1.27,10.9l-6.61-2.09s3.74-9.37,5.34-8.81Z"/>
  <ellipse class="cls-5" cx="242.81" cy="419.71" rx="3.03" ry="4.09"/>
  <ellipse class="cls-5" cx="252.68" cy="419.71" rx="3.03" ry="4.09"/>
  <ellipse class="cls-2" cx="242.81" cy="419.71" rx=".95" ry="4.09"/>
  <ellipse class="cls-2" cx="252.75" cy="419.71" rx=".95" ry="4.09"/>
  <path class="cls-4" d="m113.08,410.46c2.17,0,4.42,1.19,4.42,3.36v28.84c0,2.31-2.25,3.43-4.42,3.43s-4.42-1.12-4.42-3.43v-28.77c0-2.24,2.32-3.43,4.42-3.43Z"/>
  <path class="cls-1" d="m112.62,411.01c1.78,0,3.63,1.11,3.63,3.14v26.91c0,2.16-1.85,3.2-3.63,3.2s-3.63-1.05-3.63-3.2v-26.85c0-2.09,1.91-3.2,3.63-3.2Z"/>
  <path class="cls-3" d="m111.41,464.85s8.79-.64,8.79-8.79-7.11-9.98-7.11-9.98c0,0,10.91,4.2,10.91,10.03s-7.95,7.95-7.95,7.95"/>
  <path class="cls-3" d="m113.08,446.09s-.98,9.38,4.42,9.38,7.32,4.63,7.32,9.38"/>
</svg>